<svg id="Group_955" data-name="Group 955" xmlns="http://www.w3.org/2000/svg" width="20.174" height="16.662" viewBox="0 0 20.174 16.662">
  <g id="Group_949" data-name="Group 949">
    <path id="Path_1763" data-name="Path 1763" d="M42.736,159.019H31.749a.724.724,0,0,1-.684-.493l-2.9-7.253H25.444a.72.72,0,0,1,0-1.441h3.242a.724.724,0,0,1,.684.493l2.9,7.253h9.748l1.441-7.025a.72.72,0,0,1,1.441,0L43.457,158.3A.72.72,0,0,1,42.736,159.019Z" transform="translate(-24.724 -149.833)"/>
  </g>
  <g id="Group_950" data-name="Group 950" transform="translate(5.043 10.898)">
    <path id="Path_1764" data-name="Path 1764" d="M31.106,163.16a2.882,2.882,0,1,1,2.882-2.882A2.886,2.886,0,0,1,31.106,163.16Zm0-4.323a1.441,1.441,0,1,0,1.441,1.441A1.442,1.442,0,0,0,31.106,158.837Z" transform="translate(-28.224 -157.396)"/>
  </g>
  <g id="Group_951" data-name="Group 951" transform="translate(14.11 10.898)">
    <path id="Path_1765" data-name="Path 1765" d="M37.4,163.16a2.882,2.882,0,1,1,2.882-2.882A2.886,2.886,0,0,1,37.4,163.16Zm0-4.323a1.441,1.441,0,1,0,1.441,1.441A1.442,1.442,0,0,0,37.4,158.837Z" transform="translate(-34.516 -157.396)"/>
  </g>
</svg>
