<svg id="Facebook" xmlns="http://www.w3.org/2000/svg" width="40.536" height="40.536" viewBox="0 0 40.536 40.536">
  <path id="Path_1788" data-name="Path 1788" d="M286.613,120.65h0a20.268,20.268,0,0,1-20.268-20.268h0a20.268,20.268,0,0,1,20.268-20.268h0a20.269,20.269,0,0,1,20.268,20.268h0A20.268,20.268,0,0,1,286.613,120.65Z" transform="translate(-266.345 -80.114)" fill="#3e5c9a"/>
  <path id="Path_1789" data-name="Path 1789" d="M294.769,118.8H299.7V106.447h3.442l.367-4.137H299.7V99.954c0-.975.2-1.361,1.139-1.361h2.67V94.3H300.1c-3.671,0-5.327,1.617-5.327,4.712v3.3H292.2V106.5h2.566Z" transform="translate(-277.589 -86.283)" fill="#fff"/>
</svg>
