<svg width="20" height="20" xmlns="http://www.w3.org/2000/svg" xmlns:xlink="http://www.w3.org/1999/xlink" xmlns:svgjs="http://svgjs.com/svgjs" viewBox="995 872 20 20"><svg width="20" height="20" xmlns="http://www.w3.org/2000/svg" xmlns:xlink="http://www.w3.org/1999/xlink" xmlns:svgjs="http://svgjs.com/svgjs" fill="#333033" x="995" y="872"><svg xmlns="http://www.w3.org/2000/svg" xmlns:xlink="http://www.w3.org/1999/xlink" width="20" height="20"><path paint-order="stroke fill markers" fill-rule="evenodd" d="M10 20C4.486 20 0 15.514 0 10S4.486 0 10 0s10 4.486 10 10-4.486 10-10 10z"/></svg></svg><svg width="8" height="14" xmlns="http://www.w3.org/2000/svg" xmlns:xlink="http://www.w3.org/1999/xlink" xmlns:svgjs="http://svgjs.com/svgjs" viewBox="0.748 0 6.504 14" fill="#fff" x="1001" y="875"><svg xmlns="http://www.w3.org/2000/svg" width="8" height="14" viewBox="0.859 0.26 6.263 13.48"><path paint-order="stroke fill markers" fill-rule="evenodd" d="M2.239 7.053v6.517c0 .094.075.17.17.17h2.42a.17.17 0 0 0 .17-.17V6.947h1.754a.17.17 0 0 0 .169-.155l.169-1.996a.17.17 0 0 0-.17-.184H4.998V3.196a.6.6 0 0 1 .601-.601h1.353a.17.17 0 0 0 .17-.17V.43a.17.17 0 0 0-.17-.17H4.667a2.428 2.428 0 0 0-2.428 2.428v1.924h-1.21a.17.17 0 0 0-.17.17v1.995c0 .094.076.17.17.17h1.21v.106z"/></svg></svg></svg>