<svg xmlns="http://www.w3.org/2000/svg" width="28.379" height="26.382" viewBox="0 0 28.379 26.382">
  <g id="Gift_box" data-name="Gift box" transform="translate(0 0.002)">
    <path id="Path_1369" data-name="Path 1369" d="M377.713,944.238h-6.465v-3.964a1.054,1.054,0,0,0-1.159-.936,1.3,1.3,0,0,0-.2.016,1.123,1.123,0,0,0-.187-.016h-8.869a1.053,1.053,0,0,0-1.157.936v3.964h-6.465a1.937,1.937,0,0,0-1.935,1.935v8.713a1.935,1.935,0,0,0,1.815,1.928v6.967a1.843,1.843,0,0,0,1.737,1.933H376.1a1.843,1.843,0,0,0,1.737-1.933v-6.96a1.935,1.935,0,0,0,1.815-1.928V946.18a1.937,1.937,0,0,0-1.939-1.942Zm-17.077-3.9a.506.506,0,0,1,.238-.04.4.4,0,0,0,.085,0H369.7a.381.381,0,0,1,.076,0,.459.459,0,0,0,.207,0,.508.508,0,0,1,.3.03v4.761a.422.422,0,0,1-.195.042.432.432,0,0,1-.2-.042v-3.647a.481.481,0,0,0-.481-.481h-7.905a.483.483,0,0,0-.481.481v3.648a.479.479,0,0,1-.389,0Zm8.294,1.593v2.3h-6.948v-2.3Zm7.938,21.845a.888.888,0,0,1-.771.969H354.821a.888.888,0,0,1-.77-.969V956.82h7.568v.879a1.935,1.935,0,0,0,1.933,1.934H367a1.935,1.935,0,0,0,1.935-1.933v-.879h7.931Zm-14.285-6.08v-2.724a.971.971,0,0,1,.971-.969H367a.971.971,0,0,1,.971.969V957.7a.973.973,0,0,1-.971.969h-3.45a.973.973,0,0,1-.973-.971Zm16.1-2.814a.971.971,0,0,1-.969.971h-8.775v-.879A1.937,1.937,0,0,0,367,953.044h-3.45a1.937,1.937,0,0,0-1.933,1.933v.879h-8.412a.971.971,0,0,1-.971-.971v-8.713a.971.971,0,0,1,.971-.971h6.469a1.188,1.188,0,0,0,2.31,0h6.948a1.188,1.188,0,0,0,2.31,0h6.469a.971.971,0,0,1,.969.971Z" transform="translate(-351.272 -939.334)" fill="#272525"/>
    <path id="Path_1370" data-name="Path 1370" d="M369.635,963.443a1.694,1.694,0,1,0-1.694-1.692,1.694,1.694,0,0,0,1.694,1.692Zm0-2.9a1.216,1.216,0,1,1-1.216,1.216A1.216,1.216,0,0,1,369.635,960.539Z" transform="translate(-355.629 -944.749)" fill="#272525"/>
  </g>
</svg>
