<svg id="Google_" data-name="Google +" xmlns="http://www.w3.org/2000/svg" width="40.536" height="40.536" viewBox="0 0 40.536 40.536">
  <path id="Path_1782" data-name="Path 1782" d="M182.768,120.65h0A20.268,20.268,0,0,1,162.5,100.382h0a20.268,20.268,0,0,1,20.268-20.268h0a20.269,20.269,0,0,1,20.268,20.268h0A20.268,20.268,0,0,1,182.768,120.65Z" transform="translate(-162.5 -80.114)" fill="#df4b38"/>
  <g id="Group_1077" data-name="Group 1077" transform="translate(5.965 11.463)">
    <path id="Path_1783" data-name="Path 1783" d="M189.891,108.674H181.7l.01,2.345h5.521c-.653,2.856-2.669,4.607-5.373,4.607a6.424,6.424,0,1,1,4.367-11.134l1.812-1.562a8.805,8.805,0,1,0-6.179,15.077c4.67,0,8.045-3.562,8.045-8.425Z" transform="translate(-173.055 -100.397)" fill="#fff"/>
    <path id="Path_1784" data-name="Path 1784" d="M216.81,112.614h-3.38v-3.38h-2.157v3.38h-3.38v2.156h3.38v3.38h2.157v-3.38h3.38Z" transform="translate(-188.204 -104.239)" fill="#fff"/>
  </g>
</svg>
