<svg width="16" height="13" xmlns="http://www.w3.org/2000/svg" xmlns:xlink="http://www.w3.org/1999/xlink" xmlns:svgjs="http://svgjs.com/svgjs" viewBox="0 0.025 16 12.95" fill="#e01a2b"><svg xmlns="http://www.w3.org/2000/svg" width="16" height="13" viewBox="0 0 15.723 12.726"><path paint-order="stroke fill markers" fill-rule="evenodd" d="M8.779.828v11.236a.663.663 0 0 0 1.131.467l5.618-5.616a.664.664 0 0 0 0-.937L9.91.358a.665.665 0 0 0-1.132.47zm5.344 5.618l-4.019 4.018V2.427l4.02 4.019zm-7.375.303a.663.663 0 0 0 0-.937L1.13.193A.663.663 0 0 0 0 .663v11.235a.661.661 0 0 0 1.13.468l5.618-5.617zM1.324 2.262l4.02 4.018-4.02 4.018V2.262z"/></svg></svg>