<svg id="Instagram" xmlns="http://www.w3.org/2000/svg" xmlns:xlink="http://www.w3.org/1999/xlink" width="40.536" height="40.536" viewBox="0 0 40.536 40.536">
  <defs>
    <radialGradient id="radial-gradient" cx="-0.025" cy="1.003" r="1.849" gradientTransform="translate(0)" gradientUnits="objectBoundingBox">
      <stop offset="0" stop-color="#f5ec53"/>
      <stop offset="0.241" stop-color="#e48244"/>
      <stop offset="0.397" stop-color="#d05667"/>
      <stop offset="0.489" stop-color="#c84278"/>
      <stop offset="1" stop-color="#192cfa"/>
    </radialGradient>
  </defs>
  <path id="Path_1790" data-name="Path 1790" d="M391.646,120.65h0a20.268,20.268,0,0,1-20.268-20.268h0a20.268,20.268,0,0,1,20.268-20.268h0a20.269,20.269,0,0,1,20.268,20.268h0A20.268,20.268,0,0,1,391.646,120.65Z" transform="translate(-371.378 -80.114)" fill="url(#radial-gradient)"/>
  <g id="Group_1083" data-name="Group 1083" transform="translate(9.155 9.155)">
    <path id="Path_1791" data-name="Path 1791" d="M398.69,98.316c2.968,0,3.319.011,4.491.064a6.15,6.15,0,0,1,2.064.383,3.683,3.683,0,0,1,2.109,2.109,6.15,6.15,0,0,1,.383,2.064c.053,1.172.064,1.523.064,4.491s-.011,3.319-.064,4.491a6.143,6.143,0,0,1-.383,2.063,3.682,3.682,0,0,1-2.109,2.109,6.14,6.14,0,0,1-2.064.383c-1.172.053-1.523.065-4.491.065s-3.319-.012-4.491-.065a6.132,6.132,0,0,1-2.063-.383,3.681,3.681,0,0,1-2.109-2.109,6.161,6.161,0,0,1-.383-2.063c-.054-1.172-.064-1.523-.064-4.491s.011-3.319.064-4.491a6.169,6.169,0,0,1,.383-2.064,3.682,3.682,0,0,1,2.109-2.109,6.142,6.142,0,0,1,2.063-.383c1.172-.053,1.524-.064,4.491-.064m0-2c-3.018,0-3.4.013-4.582.067a8.162,8.162,0,0,0-2.7.517,5.682,5.682,0,0,0-3.25,3.25,8.15,8.15,0,0,0-.517,2.7c-.054,1.186-.067,1.564-.067,4.582s.013,3.4.067,4.582a8.154,8.154,0,0,0,.517,2.7,5.682,5.682,0,0,0,3.25,3.25,8.177,8.177,0,0,0,2.7.517c1.185.054,1.564.067,4.582.067s3.4-.013,4.582-.067a8.18,8.18,0,0,0,2.7-.517,5.682,5.682,0,0,0,3.25-3.25,8.169,8.169,0,0,0,.517-2.7c.054-1.185.067-1.564.067-4.582s-.013-3.4-.067-4.582a8.166,8.166,0,0,0-.517-2.7,5.682,5.682,0,0,0-3.25-3.25,8.165,8.165,0,0,0-2.7-.517c-1.186-.054-1.564-.067-4.582-.067" transform="translate(-387.577 -96.314)" fill="#fff"/>
    <path id="Path_1792" data-name="Path 1792" d="M402.85,105.88a5.707,5.707,0,1,0,5.707,5.707,5.707,5.707,0,0,0-5.707-5.707m0,9.411a3.7,3.7,0,1,1,3.7-3.7,3.7,3.7,0,0,1-3.7,3.7" transform="translate(-391.737 -100.474)" fill="#fff"/>
    <path id="Path_1793" data-name="Path 1793" d="M418.046,104.455a1.334,1.334,0,1,1-1.334-1.333,1.334,1.334,0,0,1,1.334,1.333" transform="translate(-399.666 -99.274)" fill="#fff"/>
  </g>
</svg>
