<svg id="Linkedin" xmlns="http://www.w3.org/2000/svg" width="40.536" height="40.536" viewBox="0 0 40.536 40.536">
  <path id="Path_1785" data-name="Path 1785" d="M496.679,120.65h0a20.268,20.268,0,0,1-20.268-20.268h0a20.268,20.268,0,0,1,20.268-20.268h0a20.269,20.269,0,0,1,20.268,20.268h0A20.268,20.268,0,0,1,496.679,120.65Z" transform="translate(-476.411 -80.114)" fill="#117bb8"/>
  <g id="Group_1080" data-name="Group 1080" transform="translate(10.675 8.975)">
    <g id="Group_1079" data-name="Group 1079">
      <rect id="Rectangle_55" data-name="Rectangle 55" width="4.195" height="13.551" transform="translate(0.403 6.776)" fill="#fff"/>
      <path id="Path_1786" data-name="Path 1786" d="M497.779,101a2.5,2.5,0,1,0-2.48-2.5A2.491,2.491,0,0,0,497.779,101Z" transform="translate(-495.299 -95.994)" fill="#fff"/>
    </g>
    <path id="Path_1787" data-name="Path 1787" d="M512.2,114.1c0-1.905.877-3.04,2.556-3.04,1.542,0,2.283,1.09,2.283,3.04v7.114h4.175v-8.581c0-3.629-2.058-5.385-4.931-5.385a4.725,4.725,0,0,0-4.084,2.239v-1.825h-4.024v13.552H512.2Z" transform="translate(-500.9 -100.889)" fill="#fff"/>
  </g>
</svg>
