<svg width="20" height="21" xmlns="http://www.w3.org/2000/svg" xmlns:xlink="http://www.w3.org/1999/xlink" xmlns:svgjs="http://svgjs.com/svgjs" viewBox="1070 872 20 21"><svg width="20" height="21" xmlns="http://www.w3.org/2000/svg" xmlns:xlink="http://www.w3.org/1999/xlink" xmlns:svgjs="http://svgjs.com/svgjs" viewBox="0 0.5 20 20" fill="#333033" x="1070" y="872"><svg xmlns="http://www.w3.org/2000/svg" xmlns:xlink="http://www.w3.org/1999/xlink" width="20" height="21" viewBox="0 0 20 20"><path paint-order="stroke fill markers" fill-rule="evenodd" d="M10 20C4.486 20 0 15.514 0 10S4.486 0 10 0s10 4.486 10 10-4.486 10-10 10z"/></svg></svg><svg width="13" height="9" xmlns="http://www.w3.org/2000/svg" xmlns:xlink="http://www.w3.org/1999/xlink" xmlns:svgjs="http://svgjs.com/svgjs" viewBox="0 0.155 13 8.689" fill="#fff" x="1074" y="879"><svg xmlns="http://www.w3.org/2000/svg" width="13" height="9" viewBox="0.54 0.196 11.693 7.816"><path paint-order="stroke fill markers" fill-rule="evenodd" d="M12.233 3.633v4.191a.188.188 0 0 1-.188.187H9.881a.187.187 0 0 1-.188-.187V3.926C9.693 2.9 9.327 2.2 8.408 2.2c-.702 0-1.119.471-1.302.928-.068.163-.085.39-.085.619v4.077a.187.187 0 0 1-.187.187H4.67a.187.187 0 0 1-.188-.187c.005-1.038.027-6.075.005-7.259a.187.187 0 0 1 .187-.19h2.16c.103 0 .187.084.187.188v.895c-.005.008-.013.016-.017.025h.017v-.025C7.359.938 7.96.196 9.31.196c1.67 0 2.923 1.091 2.923 3.437zM.728 8.01H2.89a.187.187 0 0 0 .188-.187V.564A.188.188 0 0 0 2.89.374H.728A.188.188 0 0 0 .54.563v7.261c0 .104.084.187.188.187z"/></svg></svg></svg>