<svg width="18" height="18" xmlns="http://www.w3.org/2000/svg" xmlns:xlink="http://www.w3.org/1999/xlink" xmlns:svgjs="http://svgjs.com/svgjs" viewBox="915 3483 18 18"><svg width="2" height="3" xmlns="http://www.w3.org/2000/svg" xmlns:xlink="http://www.w3.org/1999/xlink" xmlns:svgjs="http://svgjs.com/svgjs" viewBox="0.368 0 1.264 3" fill="#fff" x="923" y="3483"><svg xmlns="http://www.w3.org/2000/svg" xmlns:xlink="http://www.w3.org/1999/xlink" width="2" height="3" viewBox="0.638 0 1.162 2.76"><path paint-order="stroke fill markers" fill-rule="evenodd" d="M1.219 0C.9 0 .638.28.638.62V2.14c0 .343.263.62.58.62.32 0 .582-.277.582-.62V.62C1.8.28 1.538 0 1.22 0z"/></svg></svg><svg width="3" height="4" xmlns="http://www.w3.org/2000/svg" xmlns:xlink="http://www.w3.org/1999/xlink" xmlns:svgjs="http://svgjs.com/svgjs" viewBox="0 0.038 3 3.923" fill="#fff" x="919" y="3483"><svg xmlns="http://www.w3.org/2000/svg" xmlns:xlink="http://www.w3.org/1999/xlink" width="3" height="4" viewBox="0.279 0.837 1.939 2.536"><path paint-order="stroke fill markers" fill-rule="evenodd" d="M1.373 1.158C1.203.86.837.749.561.91c-.278.16-.366.532-.193.828l.758 1.314c.171.294.536.407.812.246.276-.16.364-.532.193-.827l-.758-1.314z"/></svg></svg><svg width="3" height="3" xmlns="http://www.w3.org/2000/svg" xmlns:xlink="http://www.w3.org/1999/xlink" xmlns:svgjs="http://svgjs.com/svgjs" viewBox="0 0.352 3 2.296" fill="#fff" x="916" y="3486"><svg xmlns="http://www.w3.org/2000/svg" xmlns:xlink="http://www.w3.org/1999/xlink" width="3" height="3" viewBox="0.349 0.636 2.534 1.939"><path paint-order="stroke fill markers" fill-rule="evenodd" d="M.67 1.729l1.313.759c.295.171.667.084.827-.193.16-.276.048-.641-.247-.812L1.25.723C.955.553.581.64.423.915c-.161.277-.05.643.247.814z"/></svg></svg><svg width="3" height="2" xmlns="http://www.w3.org/2000/svg" xmlns:xlink="http://www.w3.org/1999/xlink" xmlns:svgjs="http://svgjs.com/svgjs" viewBox="0 0.368 3 1.264" fill="#fff" x="915" y="3490"><svg xmlns="http://www.w3.org/2000/svg" xmlns:xlink="http://www.w3.org/1999/xlink" width="3" height="2" viewBox="0 0.622 2.758 1.162"><path paint-order="stroke fill markers" fill-rule="evenodd" d="M2.758 1.203c0-.319-.279-.58-.62-.58H.622C.28.622 0 .883 0 1.202c0 .319.28.582.621.582H2.14c.34 0 .62-.263.62-.582z"/></svg></svg><svg width="4" height="3" xmlns="http://www.w3.org/2000/svg" xmlns:xlink="http://www.w3.org/1999/xlink" xmlns:svgjs="http://svgjs.com/svgjs" viewBox="0.04 0 3.92 3" fill="#fff" x="915" y="3493"><svg xmlns="http://www.w3.org/2000/svg" xmlns:xlink="http://www.w3.org/1999/xlink" width="4" height="3" viewBox="0.84 0.967 2.535 1.94"><path paint-order="stroke fill markers" fill-rule="evenodd" d="M2.475 1.054l-1.315.76c-.295.17-.407.537-.246.812.158.277.532.365.827.194l1.315-.76c.294-.17.406-.535.246-.812-.16-.277-.532-.364-.827-.194z"/></svg></svg><svg width="3" height="4" xmlns="http://www.w3.org/2000/svg" xmlns:xlink="http://www.w3.org/1999/xlink" xmlns:svgjs="http://svgjs.com/svgjs" viewBox="0 0.04 3 3.919" fill="#fff" x="918" y="3496"><svg xmlns="http://www.w3.org/2000/svg" xmlns:xlink="http://www.w3.org/1999/xlink" width="3" height="4" viewBox="0.635 0.54 1.94 2.534"><path paint-order="stroke fill markers" fill-rule="evenodd" d="M2.294.613C2.019.453 1.652.565 1.48.86L.722 2.173c-.17.295-.084.668.193.828.278.16.643.049.813-.247l.76-1.313c.17-.299.083-.668-.194-.828z"/></svg></svg><svg width="2" height="4" xmlns="http://www.w3.org/2000/svg" xmlns:xlink="http://www.w3.org/1999/xlink" xmlns:svgjs="http://svgjs.com/svgjs" viewBox="0.159 0 1.683 4" fill="#fff" x="922" y="3497"><svg xmlns="http://www.w3.org/2000/svg" xmlns:xlink="http://www.w3.org/1999/xlink" width="2" height="4" viewBox="0.622 0.664 1.16 2.757"><path paint-order="stroke fill markers" fill-rule="evenodd" d="M1.202.664c-.319 0-.58.279-.58.621v1.517c0 .341.261.62.58.62.319 0 .58-.279.58-.62V1.285c0-.342-.261-.621-.58-.621z"/></svg></svg><svg width="3" height="3" xmlns="http://www.w3.org/2000/svg" xmlns:xlink="http://www.w3.org/1999/xlink" xmlns:svgjs="http://svgjs.com/svgjs" viewBox="0.352 0 2.297 3" fill="#fff" x="925" y="3497"><svg xmlns="http://www.w3.org/2000/svg" xmlns:xlink="http://www.w3.org/1999/xlink" width="3" height="3" viewBox="0.967 0.048 1.94 2.534"><path paint-order="stroke fill markers" fill-rule="evenodd" d="M2.06.368C1.89.071 1.524-.038 1.247.12.972.28.884.655 1.054.949l.759 1.315c.17.294.537.405.813.244.278-.159.365-.532.194-.826L2.06.368z"/></svg></svg><svg width="4" height="3" xmlns="http://www.w3.org/2000/svg" xmlns:xlink="http://www.w3.org/1999/xlink" xmlns:svgjs="http://svgjs.com/svgjs" viewBox="0.04 0 3.919 3" fill="#fff" x="928" y="3494"><svg xmlns="http://www.w3.org/2000/svg" xmlns:xlink="http://www.w3.org/1999/xlink" width="4" height="3" viewBox="0.538 0.847 2.535 1.94"><path paint-order="stroke fill markers" fill-rule="evenodd" d="M2.754 1.695L1.44.935C1.144.764.772.85.612 1.128c-.161.277-.049.642.247.814l1.313.757c.297.172.668.085.828-.193.16-.276.047-.643-.246-.811z"/></svg></svg><svg width="4" height="2" xmlns="http://www.w3.org/2000/svg" xmlns:xlink="http://www.w3.org/1999/xlink" xmlns:svgjs="http://svgjs.com/svgjs" viewBox="0 0.157 4 1.687" fill="#fff" x="929" y="3491"><svg xmlns="http://www.w3.org/2000/svg" xmlns:xlink="http://www.w3.org/1999/xlink" width="4" height="2" viewBox="0.664 0.638 2.757 1.163"><path paint-order="stroke fill markers" fill-rule="evenodd" d="M2.8.638H1.283c-.34 0-.619.26-.619.582 0 .319.279.58.62.58H2.8c.343 0 .621-.261.621-.58 0-.321-.278-.582-.62-.582z"/></svg></svg><svg width="3" height="3" xmlns="http://www.w3.org/2000/svg" xmlns:xlink="http://www.w3.org/1999/xlink" xmlns:svgjs="http://svgjs.com/svgjs" viewBox="0 0.352 3 2.296" fill="#fff" x="929" y="3487"><svg xmlns="http://www.w3.org/2000/svg" xmlns:xlink="http://www.w3.org/1999/xlink" width="3" height="3" viewBox="0.047 0.516 2.535 1.94"><path paint-order="stroke fill markers" fill-rule="evenodd" d="M.948 2.369l1.314-.76c.295-.17.407-.537.247-.813C2.35.52 1.976.432 1.68.604l-1.314.758c-.294.173-.405.537-.247.814.16.276.533.363.83.193z"/></svg></svg><svg width="3" height="3" xmlns="http://www.w3.org/2000/svg" xmlns:xlink="http://www.w3.org/1999/xlink" xmlns:svgjs="http://svgjs.com/svgjs" viewBox="0.351 0 2.297 3" fill="#fff" x="926" y="3484"><svg xmlns="http://www.w3.org/2000/svg" width="3" height="3" viewBox="0.846 0.349 1.94 2.534"><path paint-order="stroke fill markers" fill-rule="evenodd" d="M2.507.422C2.23.262 1.865.375 1.693.67L.934 1.984c-.171.293-.084.667.193.826.277.16.643.049.814-.245L2.7 1.247c.17-.292.085-.665-.192-.825z"/></svg></svg></svg>