<svg id="Group_956" data-name="Group 956" xmlns="http://www.w3.org/2000/svg" width="20" height="21.821" viewBox="0 0 20 21.821">
  <path id="Path_1772" data-name="Path 1772" d="M-604.54,473.876c.24.053.484.1.721.163a4.529,4.529,0,0,1,3.331,4.648,4.554,4.554,0,0,1-4.019,4.256,4.555,4.555,0,0,1-5.023-3.949,4.542,4.542,0,0,1,3.893-5.077.648.648,0,0,0,.117-.041Zm2.689,4.549a3.177,3.177,0,0,0-3.172-3.186,3.2,3.2,0,0,0-3.182,3.187,3.181,3.181,0,0,0,3.171,3.167A3.164,3.164,0,0,0-601.851,478.425Z" transform="translate(620.48 -473.876)" fill="#e01a2b"/>
  <path id="Path_1773" data-name="Path 1773" d="M-608.021,492.963a3.47,3.47,0,0,1-3.635,2.723,3.46,3.46,0,0,1-3.081-2.723h-4.1a1.6,1.6,0,0,1-1.542-1.028,1.6,1.6,0,0,1,.5-1.8,6.016,6.016,0,0,0,2.123-4.476c.032-.9.008-1.8.01-2.705a6.363,6.363,0,0,1,5.484-6.287,7.979,7.979,0,0,1,1.147-.052.687.687,0,0,1,.744.743c-.023.409-.357.636-.824.623a4.877,4.877,0,0,0-3.756,1.5,4.9,4.9,0,0,0-1.432,3.513c-.009.845.007,1.69,0,2.534a7.432,7.432,0,0,1-2.539,5.6.449.449,0,0,0-.16.307c.023.171.2.169.343.169h14.717c.029,0,.062.01.085,0,.087-.046.217-.081.244-.153a.316.316,0,0,0-.091-.268,7.759,7.759,0,0,1-1.776-2.265,7.5,7.5,0,0,1-.826-3.482c0-.291,0-.582,0-.873a.688.688,0,0,1,.689-.733.7.7,0,0,1,.685.744,10.741,10.741,0,0,0,.123,2.163,6.092,6.092,0,0,0,2,3.4,1.535,1.535,0,0,1,.539,1.64,1.532,1.532,0,0,1-1.25,1.166,1.8,1.8,0,0,1-.36.024h-4.061Zm-5.257.01a2.005,2.005,0,0,0,1.917,1.353,1.988,1.988,0,0,0,1.865-1.353Z" transform="translate(620.48 -473.876)"/>
</svg>
