<svg width="14" height="12" xmlns="http://www.w3.org/2000/svg" xmlns:xlink="http://www.w3.org/1999/xlink" xmlns:svgjs="http://svgjs.com/svgjs" viewBox="597 428 14 12"><svg width="9" height="12" xmlns="http://www.w3.org/2000/svg" xmlns:xlink="http://www.w3.org/1999/xlink" xmlns:svgjs="http://svgjs.com/svgjs" viewBox="0 0.012 9 11.977" fill="#272525" x="602" y="428"><svg xmlns="http://www.w3.org/2000/svg" xmlns:xlink="http://www.w3.org/1999/xlink" width="9" height="12" viewBox="0.504 1 7.594 10.106"><path paint-order="stroke fill markers" fill-rule="evenodd" d="M1.005 11.106a.5.5 0 0 1-.295-.904l5.691-4.15L.71 1.905a.5.5 0 0 1 .59-.808l6.799 4.957-6.8 4.957a.496.496 0 0 1-.294.096z"/></svg></svg><svg width="8" height="12" xmlns="http://www.w3.org/2000/svg" xmlns:xlink="http://www.w3.org/1999/xlink" xmlns:svgjs="http://svgjs.com/svgjs" viewBox="0 0.677 8 10.646" fill="#272525" x="597" y="428"><svg xmlns="http://www.w3.org/2000/svg" width="8" height="12" viewBox="0 1 7.594 10.106"><path paint-order="stroke fill markers" fill-rule="evenodd" d="M.5 11.106a.5.5 0 0 1-.295-.904l5.692-4.15L.205 1.905a.5.5 0 0 1 .59-.808l6.8 4.957-6.8 4.957a.497.497 0 0 1-.295.096z"/></svg></svg></svg>