<svg width="23" height="24" xmlns="http://www.w3.org/2000/svg" xmlns:xlink="http://www.w3.org/1999/xlink" xmlns:svgjs="http://svgjs.com/svgjs" viewBox="0 0.336 23 23.328" fill="#4d4e50"><svg xmlns="http://www.w3.org/2000/svg" width="23" height="24" viewBox="0 0 22.767 23.091"><path paint-order="stroke fill markers" fill-rule="evenodd" d="M21.274 0c-.572 0-1.299.07-2.16.208-.894.145-1.51.312-1.883.512-.371.198-.932.694-1.714 1.516-.757.796-1.728 2.044-2.884 3.712a59.067 59.067 0 0 0-3.023 4.805 88.18 88.18 0 0 0-2.321 4.471c-.547-.692-1.12-1.247-1.711-1.652-.751-.515-1.469-.777-2.135-.777-.68 0-1.422.298-2.209.884C.416 14.289 0 14.984 0 15.74c0 .57.354 1.237 1.083 2.038 1.062 1.165 1.918 2.244 2.545 3.212.467.719.788 1.174.98 1.386.218.241.495.424.825.544.316.114.841.17 1.605.17 1.05 0 1.764-.112 2.185-.341.422-.231.754-.558.99-.974.212-.375.544-1.123 1.015-2.286 1.17-2.918 2.763-5.972 4.731-9.077 1.964-3.095 3.887-5.522 5.715-7.211.448-.408.721-.697.859-.913.155-.243.234-.525.234-.84 0-.397-.14-.74-.415-1.023C22.075.143 21.712 0 21.274 0z"/></svg></svg>