<svg width="31" height="30" xmlns="http://www.w3.org/2000/svg" xmlns:xlink="http://www.w3.org/1999/xlink" xmlns:svgjs="http://svgjs.com/svgjs" viewBox="315 5049 31 30"><svg width="9" height="7" xmlns="http://www.w3.org/2000/svg" xmlns:xlink="http://www.w3.org/1999/xlink" xmlns:svgjs="http://svgjs.com/svgjs" viewBox="0 0.352 9 6.295" fill="#4d4e50" x="315" y="5059"><svg xmlns="http://www.w3.org/2000/svg" xmlns:xlink="http://www.w3.org/1999/xlink" width="9" height="7" viewBox="0 0.113 8.451 5.911"><path paint-order="stroke fill markers" fill-rule="evenodd" d="M2 .154A1.63 1.63 0 0 0 .482.591 1.644 1.644 0 0 0 .48 2.915c.006.005.015.007.022.015l-.009.005 3.09 3.09L8.45 1.156 2.004.132c-.003.009-.002.017-.003.022z"/></svg></svg><svg width="7" height="9" xmlns="http://www.w3.org/2000/svg" xmlns:xlink="http://www.w3.org/1999/xlink" xmlns:svgjs="http://svgjs.com/svgjs" viewBox="0.343 0 6.314 9" fill="#4d4e50" x="328" y="5070"><svg xmlns="http://www.w3.org/2000/svg" xmlns:xlink="http://www.w3.org/1999/xlink" width="7" height="9" viewBox="0.975 0.571 5.913 8.429"><path paint-order="stroke fill markers" fill-rule="evenodd" d="M6.767 6.737c.01.003.022.002.031.005L5.821.57.975 5.416l2.967 2.968c.004-.003.015-.012.02-.02.042.055.076.109.124.157a1.643 1.643 0 0 0 2.681-1.784z"/></svg></svg><svg width="7" height="7" xmlns="http://www.w3.org/2000/svg" xmlns:xlink="http://www.w3.org/1999/xlink" xmlns:svgjs="http://svgjs.com/svgjs" fill="#4d4e50" x="323" y="5064"><svg xmlns="http://www.w3.org/2000/svg" xmlns:xlink="http://www.w3.org/1999/xlink" width="7" height="7" viewBox="0.039 0.388 6.57 6.571"><path paint-order="stroke fill markers" fill-rule="evenodd" d="M6.264 2.087L4.912.736c-.23-.23-.53-.346-.832-.348a1.18 1.18 0 0 0-.832.346L.761 3.22l-.377.377c-.23.23-.343.53-.345.832.001.303.117.603.346.832l1.352 1.352a1.175 1.175 0 0 0 1.663 0L6.264 3.75a1.172 1.172 0 0 0 0-1.663z"/></svg></svg><svg width="29" height="28" xmlns="http://www.w3.org/2000/svg" xmlns:xlink="http://www.w3.org/1999/xlink" xmlns:svgjs="http://svgjs.com/svgjs" viewBox="0.465 0 28.07 28" fill="#4d4e50" x="317" y="5049"><svg xmlns="http://www.w3.org/2000/svg" width="29" height="28" viewBox="0.623 0 27.445 27.376"><path paint-order="stroke fill markers" fill-rule="evenodd" d="M24.397 12.773l.013.014L27.922 2.25c.052-.113.089-.227.113-.347l.002-.005A1.583 1.583 0 0 0 26.11.045L26.11.042l-.02.006a1.852 1.852 0 0 0-.227.077L15.595 3.508c-.358.079-.703.223-.982.5L7.33 11.292l-5.24 5.24-.886.886a1.988 1.988 0 0 0 .003 2.812l1.203 1.203-.302.592 3.832 3.833.593-.303 1.237 1.238a1.987 1.987 0 0 0 2.81 0l.886-.885 5.214-5.213 7.31-7.31c.18-.18.31-.391.407-.612zm-14.63 9.208c-.66.66-1.734.663-2.397 0l-1.352-1.352a1.698 1.698 0 0 1 0-2.397l.376-.378 2.488-2.487a1.696 1.696 0 0 1 2.397 0l1.352 1.353a1.695 1.695 0 0 1 0 2.397L9.768 21.98zm5.13-8.878a3.05 3.05 0 0 1 0-4.315 3.048 3.048 0 0 1 4.314.001 3.048 3.048 0 0 1 0 4.312 3.05 3.05 0 0 1-4.314.002z"/></svg></svg></svg>