<svg width="20" height="20" xmlns="http://www.w3.org/2000/svg" xmlns:xlink="http://www.w3.org/1999/xlink" xmlns:svgjs="http://svgjs.com/svgjs" viewBox="1032 872 20 20"><svg width="20" height="20" xmlns="http://www.w3.org/2000/svg" xmlns:xlink="http://www.w3.org/1999/xlink" xmlns:svgjs="http://svgjs.com/svgjs" x="1032" y="872"><svg xmlns="http://www.w3.org/2000/svg" xmlns:xlink="http://www.w3.org/1999/xlink" width="20" height="20"><path paint-order="stroke fill markers" fill-rule="evenodd" d="M10 20C4.47 20 0 15.53 0 10S4.47 0 10 0s10 4.47 10 10-4.47 10-10 10z"/></svg></svg><svg width="12" height="10" xmlns="http://www.w3.org/2000/svg" xmlns:xlink="http://www.w3.org/1999/xlink" xmlns:svgjs="http://svgjs.com/svgjs" viewBox="0 0.009 12 9.983" fill="#fff" x="1036" y="877"><svg xmlns="http://www.w3.org/2000/svg" width="12" height="10" viewBox="0.691 0.471 10.854 9.029"><path paint-order="stroke fill markers" fill-rule="evenodd" d="M11.5 1.554a4.443 4.443 0 0 1-1.098.316c.177-.03.436-.353.54-.484a2.04 2.04 0 0 0 .364-.671c.01-.019.017-.043-.002-.057-.024-.01-.04-.005-.059.005a5.572 5.572 0 0 1-1.3.503.087.087 0 0 1-.09-.024c-.039-.043-.074-.084-.114-.118a2.293 2.293 0 0 0-.631-.39 2.174 2.174 0 0 0-.967-.158c-.32.021-.634.112-.917.262-.285.15-.538.359-.74.61a2.31 2.31 0 0 0-.442.896c-.076.315-.07.626-.024.944.008.053.003.06-.044.053-1.788-.269-3.27-.915-4.472-2.3-.052-.06-.08-.06-.124.004-.526.797-.27 2.078.387 2.708.087.084.178.168.275.245-.036.007-.473-.041-.863-.245-.053-.033-.078-.014-.083.046-.005.085.002.165.014.258.1.809.655 1.556 1.413 1.848.09.038.19.072.287.089-.173.038-.35.065-.846.026-.062-.012-.085.02-.062.079.372 1.026 1.176 1.33 1.778 1.505.08.014.161.014.242.033-.005.008-.01.008-.014.015-.2.308-.892.536-1.214.65-.587.208-1.225.3-1.845.239-.099-.015-.12-.014-.147 0-.027.017-.003.04.028.067.126.084.255.158.385.23.393.211.803.379 1.233.499 2.216.618 4.71.163 6.375-1.507 1.306-1.312 1.764-3.121 1.764-4.933 0-.07.083-.11.132-.147a4.35 4.35 0 0 0 .868-.912.28.28 0 0 0 .057-.175v-.009c0-.029 0-.02-.044 0z"/></svg></svg></svg>