<svg id="Twitter" xmlns="http://www.w3.org/2000/svg" width="40.536" height="40.536" viewBox="0 0 40.536 40.536">
  <path id="Path_1780" data-name="Path 1780" d="M601.712,120.65h0a20.268,20.268,0,0,1-20.268-20.268h0a20.268,20.268,0,0,1,20.268-20.268h0a20.269,20.269,0,0,1,20.268,20.268h0A20.268,20.268,0,0,1,601.712,120.65Z" transform="translate(-581.444 -80.114)" fill="#29a9e1"/>
  <path id="Path_1781" data-name="Path 1781" d="M598.2,116.01a12.6,12.6,0,0,0,19.387-11.19,8.983,8.983,0,0,0,2.211-2.294,8.828,8.828,0,0,1-2.545.7,4.437,4.437,0,0,0,1.948-2.451,8.888,8.888,0,0,1-2.813,1.076,4.434,4.434,0,0,0-7.551,4.041,12.576,12.576,0,0,1-9.133-4.63,4.437,4.437,0,0,0,1.372,5.917,4.426,4.426,0,0,1-2.008-.554,4.436,4.436,0,0,0,3.554,4.4,4.439,4.439,0,0,1-2,.076,4.433,4.433,0,0,0,4.139,3.077A8.9,8.9,0,0,1,598.2,116.01Z" transform="translate(-588.73 -88.957)" fill="#fff"/>
</svg>
